<svg width="1000" height="1000" viewBox="0 0 1000 1000" fill="none" xmlns="http://www.w3.org/2000/svg">
<rect width="1000" height="1000" fill="#202123"/>
<path d="M721.148 381.83L734.659 256.344C736.214 242.25 722.218 231.656 709.096 236.71L606.841 276.465C602.078 278.312 596.927 278.214 592.164 276.368C563.49 265.092 532.289 258.969 499.63 258.969C466.193 258.969 434.214 265.481 405.054 277.242C400.194 279.186 394.848 279.284 389.988 277.242L288.997 236.418C275.875 231.072 261.781 241.57 263.142 255.664L275.486 387.078C275.875 390.772 275.098 394.563 273.445 397.868C255.56 433.054 245.743 472.906 246.132 515.091C247.59 654.767 360.634 766.256 500.213 765.867C639.889 765.478 753.03 652.143 753.03 512.369C753.03 469.31 742.241 428.777 723.287 393.202C721.537 389.8 720.76 385.815 721.148 381.83ZM389.016 557.081C357.037 558.734 330.696 532.392 332.348 500.414C333.709 473.003 355.968 450.744 383.378 449.384C415.357 447.731 441.698 474.072 440.046 506.051C438.685 533.462 416.426 555.72 389.016 557.081ZM548.23 561.261L511.585 615.012C507.794 620.65 499.532 620.65 495.644 615.012L459 561.164C454.529 554.554 459.097 545.514 466.97 545.514H540.356C548.132 545.514 552.798 554.651 548.23 561.261ZM619.574 560.192C587.596 561.844 561.254 535.503 562.907 503.524C564.268 476.114 586.526 453.855 613.937 452.494C645.916 450.842 672.257 477.183 670.604 509.162C669.244 536.572 646.985 558.831 619.574 560.192Z" fill="#00FF75"/>
<path d="M445.004 487H326.996C320.364 487 315 480.609 315 472.706V463.294C315 455.391 320.364 449 326.996 449H445.004C451.636 449 457 455.391 457 463.294V472.706C457 480.609 451.636 487 445.004 487Z" fill="#00B15C"/>
<path d="M676.004 487H557.996C551.364 487 546 480.609 546 472.706V463.294C546 455.391 551.364 449 557.996 449H676.004C682.636 449 688 455.391 688 463.294V472.706C688 480.609 682.636 487 676.004 487Z" fill="#00B15C"/>
</svg>
