<svg id="Слой_1" data-name="Слой 1" xmlns="http://www.w3.org/2000/svg" viewBox="0 0 1000 1000"><defs><style>.cls-1{fill:#1d1d1b;}</style></defs><circle class="cls-1" cx="500" cy="500" r="102.79" transform="translate(-101.5 128.25) rotate(-13.28)"/><path class="cls-1" d="M921.5,298.1a37.57,37.57,0,0,1-4.2-21.6L942.8,40c2.9-26.5-23.4-46.6-48.2-36.9l-192.7,75a38.09,38.09,0,0,1-27.6-.1,478.46,478.46,0,0,0-352.5,1.5,37.72,37.72,0,0,1-28.4.1L103.3,2.6A35.52,35.52,0,0,0,54.6,38.9L77.9,286.4a37.87,37.87,0,0,1-3.8,20.4A477.45,477.45,0,0,0,501.3,1000c263.1-.7,476.2-214.2,476.2-477.5A475.3,475.3,0,0,0,921.5,298.1ZM743.9,549.3,732,552.81a51.4,51.4,0,0,0-30.6,73.88l6,10.92c24.51,45-24.72,94.23-69.72,69.72l-10.92-6A51.4,51.4,0,0,0,552.81,732L549.3,743.9c-14.49,49.15-84.11,49.15-98.6,0L447.19,732a51.4,51.4,0,0,0-73.88-30.6l-10.92,6c-45,24.51-94.22-24.72-69.71-69.72l5.94-10.92A51.4,51.4,0,0,0,268,552.81L256.1,549.3c-49.15-14.49-49.15-84.11,0-98.6L268,447.19a51.4,51.4,0,0,0,30.6-73.88l-5.94-10.92c-24.51-45,24.71-94.22,69.71-69.71l10.92,5.94A51.4,51.4,0,0,0,447.19,268l3.51-11.92c14.49-49.15,84.11-49.15,98.6,0L552.81,268a51.4,51.4,0,0,0,73.88,30.6l10.92-5.94c45-24.51,94.23,24.71,69.72,69.71l-6,10.92A51.4,51.4,0,0,0,732,447.19l11.92,3.51C793.05,465.19,793.05,534.81,743.9,549.3Z"/></svg>