<svg id="Слой_1" data-name="Слой 1" xmlns="http://www.w3.org/2000/svg" viewBox="0 0 1000 1000"><defs><style>.cls-1{fill:#1d1d1b;}</style></defs><path class="cls-1" d="M547.54,515.85H452.46a15.85,15.85,0,0,0,0,31.69h95.08a15.85,15.85,0,0,0,0-31.69Z"/><path class="cls-1" d="M432,441.26l-63.39-63.38a15.84,15.84,0,0,0-22.41,22.4l52.18,52.18-52.18,52.18a15.85,15.85,0,1,0,22.41,22.41L432,463.67A15.86,15.86,0,0,0,432,441.26Z"/><path class="cls-1" d="M921.5,298.1a37.57,37.57,0,0,1-4.2-21.6L942.8,40c2.9-26.5-23.4-46.6-48.2-36.9l-192.7,75a38.09,38.09,0,0,1-27.6-.1,478.46,478.46,0,0,0-352.5,1.5,37.72,37.72,0,0,1-28.4.1L103.3,2.6A35.52,35.52,0,0,0,54.6,38.9L77.9,286.4a37.87,37.87,0,0,1-3.8,20.4A477.45,477.45,0,0,0,501.3,1000c263.1-.7,476.2-214.2,476.2-477.5A475.3,475.3,0,0,0,921.5,298.1Zm-168,360.36a63.38,63.38,0,0,1-63.38,63.38H309.85a63.38,63.38,0,0,1-63.38-63.38V341.54a63.38,63.38,0,0,1,63.38-63.38h380.3a63.38,63.38,0,0,1,63.38,63.38Z"/></svg>