<svg id="Слой_1" data-name="Слой 1" xmlns="http://www.w3.org/2000/svg" viewBox="0 0 1000 1000"><defs><style>.cls-1{fill:#1d1d1b;}</style></defs><path class="cls-1" d="M600.07,557,455.35,466.55a18.08,18.08,0,0,0-27.68,15.34v180.9a18.09,18.09,0,0,0,27.68,15.34l144.72-90.45a18.08,18.08,0,0,0,0-30.68Z"/><path class="cls-1" d="M921.5,298.1a37.57,37.57,0,0,1-4.2-21.6L942.8,40c2.9-26.5-23.4-46.6-48.2-36.9l-192.7,75a38.09,38.09,0,0,1-27.6-.1,478.46,478.46,0,0,0-352.5,1.5,37.72,37.72,0,0,1-28.4.1L103.3,2.6A35.52,35.52,0,0,0,54.6,38.9L77.9,286.4a37.87,37.87,0,0,1-3.8,20.4A477.45,477.45,0,0,0,501.3,1000c263.1-.7,476.2-214.2,476.2-477.5A475.3,475.3,0,0,0,921.5,298.1ZM373.4,246.71H626.67a18.09,18.09,0,1,1,0,36.18H373.4a18.09,18.09,0,1,1,0-36.18ZM301,319.07H699a18.09,18.09,0,1,1,0,36.18H301a18.09,18.09,0,0,1,0-36.18ZM789.48,699a54.27,54.27,0,0,1-54.27,54.27H264.86A54.27,54.27,0,0,1,210.59,699V445.71a54.27,54.27,0,0,1,54.27-54.27H735.21a54.27,54.27,0,0,1,54.27,54.27Z"/></svg>