<svg width="1000" height="1000" viewBox="0 0 1000 1000" fill="none" xmlns="http://www.w3.org/2000/svg">
<rect width="1000" height="1000" fill="#202123"/>
<g clip-path="url(#clip0_13_2)">
<path d="M715.327 384.674L728.485 262.64C729.981 248.966 716.41 238.594 703.614 243.6L604.18 282.3C599.588 284.106 594.531 284.002 589.939 282.248C562.075 271.309 531.734 265.272 500 265.272C467.492 265.272 436.48 271.567 408.049 283.022C403.353 284.931 398.09 284.983 393.394 283.074L295.303 243.342C282.558 238.182 268.884 248.347 270.174 262.072L282.196 389.782C282.558 393.394 281.835 397.058 280.236 400.309C262.846 434.468 253.197 473.219 253.662 514.241C255.055 649.949 364.911 758.361 500.671 758C636.43 757.639 746.39 647.473 746.39 511.61C746.39 469.762 735.915 430.34 717.494 395.82C715.688 392.414 714.914 388.544 715.327 384.674ZM392.466 555.005C361.351 556.605 335.809 531.011 337.357 499.897C338.698 473.271 360.37 451.599 386.996 450.258C418.111 448.658 443.653 474.252 442.105 505.366C440.763 531.992 419.091 553.664 392.466 555.005ZM547.266 558.979L511.61 611.301C507.895 616.771 499.845 616.771 496.13 611.301L460.474 558.979C456.088 552.529 460.578 543.705 468.214 543.705H539.526C547.162 543.757 551.652 552.58 547.266 558.979ZM616.564 557.998C585.45 559.598 559.908 534.004 561.456 502.89C562.797 476.264 584.469 454.592 611.095 453.25C642.21 451.651 667.752 477.244 666.204 508.359C664.862 534.985 643.19 556.657 616.564 557.998Z" fill="white"/>
</g>
<defs>
<clipPath id="clip0_13_2">
<rect width="516" height="516" fill="white" transform="translate(242 242)"/>
</clipPath>
</defs>
</svg>
