<svg width="516" height="516" viewBox="0 0 516 516" fill="none" xmlns="http://www.w3.org/2000/svg">
<g clip-path="url(#clip0_13_3)">
<path d="M473.327 142.674L486.485 20.6399C487.981 6.96591 474.41 -3.40569 461.614 1.59951L362.18 40.2995C357.588 42.1055 352.531 42.0023 347.939 40.2479C320.075 29.3087 289.734 23.2715 258 23.2715C225.492 23.2715 194.48 29.5667 166.049 41.0219C161.353 42.9311 156.09 42.9827 151.394 41.0735L53.3027 1.34151C40.5575 -3.81849 26.8835 6.34671 28.1735 20.0723L40.1963 147.782C40.5575 151.394 39.8351 155.058 38.2355 158.309C20.8463 192.468 11.1971 231.219 11.6615 272.241C13.0547 407.949 122.911 516.361 258.671 516C394.43 515.639 504.39 405.473 504.39 269.61C504.39 227.762 493.915 188.34 475.494 153.82C473.688 150.414 472.914 146.544 473.327 142.674ZM150.466 313.005C119.351 314.605 93.8087 289.012 95.3567 257.897C96.6983 231.271 118.37 209.599 144.996 208.258C176.111 206.658 201.653 232.251 200.105 263.366C198.763 289.992 177.091 311.664 150.466 313.005ZM305.266 316.979L269.61 369.301C265.895 374.771 257.845 374.771 254.13 369.301L218.474 316.979C214.088 310.529 218.578 301.705 226.214 301.705H297.526C305.162 301.757 309.652 310.58 305.266 316.979ZM374.564 315.998C343.45 317.598 317.908 292.004 319.456 260.889C320.797 234.264 342.469 212.592 369.095 211.25C400.21 209.651 425.752 235.244 424.204 266.359C422.862 292.985 401.19 314.657 374.564 315.998Z" fill="white"/>
</g>
<defs>
<clipPath id="clip0_13_3">
<rect width="516" height="516" fill="white"/>
</clipPath>
</defs>
</svg>
