<svg width="1000" height="1000" viewBox="0 0 1000 1000" fill="none" xmlns="http://www.w3.org/2000/svg">
<rect width="1000" height="1000" fill="#202123"/>
<path d="M348.55 702.097C346.255 715.179 359.163 725.419 370.563 719.56L500.045 653.01L629.527 719.56C640.927 725.419 653.835 715.179 651.54 702.097L627.063 562.577L730.972 463.556C740.683 454.302 735.656 437.382 722.647 435.534L578.142 415.006L513.71 287.373C507.906 275.876 492.184 275.876 486.38 287.373L421.948 415.006L277.443 435.534C264.434 437.382 259.407 454.302 269.118 463.556L373.027 562.577L348.55 702.097ZM493.235 620.437L384.506 676.321L404.986 559.581C405.952 554.078 404.136 548.443 400.185 544.678L314.434 462.96L433.977 445.978C438.918 445.276 443.233 442.119 445.564 437.502L500.045 329.581L554.525 437.502C556.857 442.119 561.172 445.276 566.113 445.978L685.656 462.96L599.905 544.678C595.953 548.443 594.138 554.078 595.104 559.581L615.584 676.321L506.854 620.437C502.559 618.23 497.53 618.23 493.235 620.437Z" fill="white"/>
</svg>
