<svg width="1590" height="400" viewBox="0 0 1590 400" fill="none" xmlns="http://www.w3.org/2000/svg">
<rect width="1590" height="400" fill="#202123"/>
<path d="M791.5 207.188H799.312C799.062 210.167 798.229 212.823 796.812 215.156C795.396 217.469 793.406 219.292 790.844 220.625C788.281 221.958 785.167 222.625 781.5 222.625C778.688 222.625 776.156 222.125 773.906 221.125C771.656 220.104 769.729 218.667 768.125 216.812C766.521 214.938 765.292 212.677 764.438 210.031C763.604 207.385 763.188 204.427 763.188 201.156V197.375C763.188 194.104 763.615 191.146 764.469 188.5C765.344 185.854 766.594 183.594 768.219 181.719C769.844 179.823 771.792 178.375 774.062 177.375C776.354 176.375 778.927 175.875 781.781 175.875C785.406 175.875 788.469 176.542 790.969 177.875C793.469 179.208 795.406 181.052 796.781 183.406C798.177 185.76 799.031 188.458 799.344 191.5H791.531C791.323 189.542 790.865 187.865 790.156 186.469C789.469 185.073 788.448 184.01 787.094 183.281C785.74 182.531 783.969 182.156 781.781 182.156C779.99 182.156 778.427 182.49 777.094 183.156C775.76 183.823 774.646 184.802 773.75 186.094C772.854 187.385 772.177 188.979 771.719 190.875C771.281 192.75 771.062 194.896 771.062 197.312V201.156C771.062 203.448 771.26 205.531 771.656 207.406C772.073 209.26 772.698 210.854 773.531 212.188C774.385 213.521 775.469 214.552 776.781 215.281C778.094 216.01 779.667 216.375 781.5 216.375C783.729 216.375 785.531 216.021 786.906 215.312C788.302 214.604 789.354 213.573 790.062 212.219C790.792 210.844 791.271 209.167 791.5 207.188ZM824.75 215.219V199.094C824.75 197.885 824.531 196.844 824.094 195.969C823.656 195.094 822.99 194.417 822.094 193.938C821.219 193.458 820.115 193.219 818.781 193.219C817.552 193.219 816.49 193.427 815.594 193.844C814.698 194.26 814 194.823 813.5 195.531C813 196.24 812.75 197.042 812.75 197.938H805.25C805.25 196.604 805.573 195.312 806.219 194.062C806.865 192.812 807.802 191.698 809.031 190.719C810.26 189.74 811.729 188.969 813.438 188.406C815.146 187.844 817.062 187.562 819.188 187.562C821.729 187.562 823.979 187.99 825.938 188.844C827.917 189.698 829.469 190.99 830.594 192.719C831.74 194.427 832.312 196.573 832.312 199.156V214.188C832.312 215.729 832.417 217.115 832.625 218.344C832.854 219.552 833.177 220.604 833.594 221.5V222H825.875C825.521 221.188 825.24 220.156 825.031 218.906C824.844 217.635 824.75 216.406 824.75 215.219ZM825.844 201.438L825.906 206.094H820.5C819.104 206.094 817.875 206.229 816.812 206.5C815.75 206.75 814.865 207.125 814.156 207.625C813.448 208.125 812.917 208.729 812.562 209.438C812.208 210.146 812.031 210.948 812.031 211.844C812.031 212.74 812.24 213.562 812.656 214.312C813.073 215.042 813.677 215.615 814.469 216.031C815.281 216.448 816.26 216.656 817.406 216.656C818.948 216.656 820.292 216.344 821.438 215.719C822.604 215.073 823.521 214.292 824.188 213.375C824.854 212.438 825.208 211.552 825.25 210.719L827.688 214.062C827.438 214.917 827.01 215.833 826.406 216.812C825.802 217.792 825.01 218.729 824.031 219.625C823.073 220.5 821.917 221.219 820.562 221.781C819.229 222.344 817.688 222.625 815.938 222.625C813.729 222.625 811.76 222.188 810.031 221.312C808.302 220.417 806.948 219.219 805.969 217.719C804.99 216.198 804.5 214.479 804.5 212.562C804.5 210.771 804.833 209.188 805.5 207.812C806.188 206.417 807.188 205.25 808.5 204.312C809.833 203.375 811.458 202.667 813.375 202.188C815.292 201.688 817.479 201.438 819.938 201.438H825.844ZM855.688 188.188V193.688H836.625V188.188H855.688ZM842.125 179.906H849.656V212.656C849.656 213.698 849.802 214.5 850.094 215.062C850.406 215.604 850.833 215.969 851.375 216.156C851.917 216.344 852.552 216.438 853.281 216.438C853.802 216.438 854.302 216.406 854.781 216.344C855.26 216.281 855.646 216.219 855.938 216.156L855.969 221.906C855.344 222.094 854.615 222.26 853.781 222.406C852.969 222.552 852.031 222.625 850.969 222.625C849.24 222.625 847.708 222.323 846.375 221.719C845.042 221.094 844 220.083 843.25 218.688C842.5 217.292 842.125 215.438 842.125 213.125V179.906ZM876.406 222.625C873.906 222.625 871.646 222.219 869.625 221.406C867.625 220.573 865.917 219.417 864.5 217.938C863.104 216.458 862.031 214.719 861.281 212.719C860.531 210.719 860.156 208.562 860.156 206.25V205C860.156 202.354 860.542 199.958 861.312 197.812C862.083 195.667 863.156 193.833 864.531 192.312C865.906 190.771 867.531 189.594 869.406 188.781C871.281 187.969 873.312 187.562 875.5 187.562C877.917 187.562 880.031 187.969 881.844 188.781C883.656 189.594 885.156 190.74 886.344 192.219C887.552 193.677 888.448 195.417 889.031 197.438C889.635 199.458 889.938 201.688 889.938 204.125V207.344H863.812V201.938H882.5V201.344C882.458 199.99 882.188 198.719 881.688 197.531C881.208 196.344 880.469 195.385 879.469 194.656C878.469 193.927 877.135 193.562 875.469 193.562C874.219 193.562 873.104 193.833 872.125 194.375C871.167 194.896 870.365 195.656 869.719 196.656C869.073 197.656 868.573 198.865 868.219 200.281C867.885 201.677 867.719 203.25 867.719 205V206.25C867.719 207.729 867.917 209.104 868.312 210.375C868.729 211.625 869.333 212.719 870.125 213.656C870.917 214.594 871.875 215.333 873 215.875C874.125 216.396 875.406 216.656 876.844 216.656C878.656 216.656 880.271 216.292 881.688 215.562C883.104 214.833 884.333 213.802 885.375 212.469L889.344 216.312C888.615 217.375 887.667 218.396 886.5 219.375C885.333 220.333 883.906 221.115 882.219 221.719C880.552 222.323 878.615 222.625 876.406 222.625ZM895.844 174H903.375V214.781L902.656 222H895.844V174ZM925.438 204.781V205.438C925.438 207.938 925.156 210.24 924.594 212.344C924.052 214.427 923.219 216.24 922.094 217.781C920.99 219.323 919.615 220.521 917.969 221.375C916.344 222.208 914.458 222.625 912.312 222.625C910.208 222.625 908.375 222.229 906.812 221.438C905.25 220.646 903.938 219.521 902.875 218.062C901.833 216.604 900.99 214.865 900.344 212.844C899.698 210.823 899.24 208.594 898.969 206.156V204.062C899.24 201.604 899.698 199.375 900.344 197.375C900.99 195.354 901.833 193.615 902.875 192.156C903.938 190.677 905.24 189.542 906.781 188.75C908.344 187.958 910.167 187.562 912.25 187.562C914.417 187.562 916.323 187.979 917.969 188.812C919.635 189.646 921.021 190.833 922.125 192.375C923.229 193.896 924.052 195.708 924.594 197.812C925.156 199.917 925.438 202.24 925.438 204.781ZM917.906 205.438V204.781C917.906 203.26 917.781 201.833 917.531 200.5C917.281 199.146 916.865 197.958 916.281 196.938C915.719 195.917 914.948 195.115 913.969 194.531C913.01 193.927 911.812 193.625 910.375 193.625C909.042 193.625 907.896 193.854 906.938 194.312C905.979 194.771 905.177 195.396 904.531 196.188C903.885 196.979 903.375 197.896 903 198.938C902.646 199.979 902.406 201.104 902.281 202.312V207.969C902.469 209.531 902.865 210.969 903.469 212.281C904.094 213.573 904.969 214.615 906.094 215.406C907.219 216.177 908.667 216.562 910.438 216.562C911.833 216.562 913.01 216.281 913.969 215.719C914.927 215.156 915.688 214.375 916.25 213.375C916.833 212.354 917.25 211.167 917.5 209.812C917.771 208.458 917.906 207 917.906 205.438ZM939.875 174V222H932.312V174H939.875ZM963.031 222.625C960.531 222.625 958.271 222.219 956.25 221.406C954.25 220.573 952.542 219.417 951.125 217.938C949.729 216.458 948.656 214.719 947.906 212.719C947.156 210.719 946.781 208.562 946.781 206.25V205C946.781 202.354 947.167 199.958 947.938 197.812C948.708 195.667 949.781 193.833 951.156 192.312C952.531 190.771 954.156 189.594 956.031 188.781C957.906 187.969 959.938 187.562 962.125 187.562C964.542 187.562 966.656 187.969 968.469 188.781C970.281 189.594 971.781 190.74 972.969 192.219C974.177 193.677 975.073 195.417 975.656 197.438C976.26 199.458 976.562 201.688 976.562 204.125V207.344H950.438V201.938H969.125V201.344C969.083 199.99 968.812 198.719 968.312 197.531C967.833 196.344 967.094 195.385 966.094 194.656C965.094 193.927 963.76 193.562 962.094 193.562C960.844 193.562 959.729 193.833 958.75 194.375C957.792 194.896 956.99 195.656 956.344 196.656C955.698 197.656 955.198 198.865 954.844 200.281C954.51 201.677 954.344 203.25 954.344 205V206.25C954.344 207.729 954.542 209.104 954.938 210.375C955.354 211.625 955.958 212.719 956.75 213.656C957.542 214.594 958.5 215.333 959.625 215.875C960.75 216.396 962.031 216.656 963.469 216.656C965.281 216.656 966.896 216.292 968.312 215.562C969.729 214.833 970.958 213.802 972 212.469L975.969 216.312C975.24 217.375 974.292 218.396 973.125 219.375C971.958 220.333 970.531 221.115 968.844 221.719C967.177 222.323 965.24 222.625 963.031 222.625Z" fill="white"/>
<g clip-path="url(#clip0_2_2)">
<path d="M720.076 173.18L723.136 144.8C723.484 141.62 720.328 139.208 717.352 140.372L694.228 149.372C693.16 149.792 691.984 149.768 690.916 149.36C684.436 146.816 677.38 145.412 670 145.412C662.44 145.412 655.228 146.876 648.616 149.54C647.524 149.984 646.3 149.996 645.208 149.552L622.396 140.312C619.432 139.112 616.252 141.476 616.552 144.668L619.348 174.368C619.432 175.208 619.264 176.06 618.892 176.816C614.848 184.76 612.604 193.772 612.712 203.312C613.036 234.872 638.584 260.084 670.156 260C701.728 259.916 727.3 234.296 727.3 202.7C727.3 192.968 724.864 183.8 720.58 175.772C720.16 174.98 719.98 174.08 720.076 173.18ZM644.992 212.792C637.756 213.164 631.816 207.212 632.176 199.976C632.488 193.784 637.528 188.744 643.72 188.432C650.956 188.06 656.896 194.012 656.536 201.248C656.224 207.44 651.184 212.48 644.992 212.792ZM680.992 213.716L672.7 225.884C671.836 227.156 669.964 227.156 669.1 225.884L660.808 213.716C659.788 212.216 660.832 210.164 662.608 210.164H679.192C680.968 210.176 682.012 212.228 680.992 213.716ZM697.108 213.488C689.872 213.86 683.932 207.908 684.292 200.672C684.604 194.48 689.644 189.44 695.836 189.128C703.072 188.756 709.012 194.708 708.652 201.944C708.34 208.136 703.3 213.176 697.108 213.488Z" fill="white"/>
</g>
<defs>
<clipPath id="clip0_2_2">
<rect width="120" height="120" fill="white" transform="translate(610 140)"/>
</clipPath>
</defs>
</svg>
