<svg width="376" height="256" viewBox="0 0 376 256" fill="none" xmlns="http://www.w3.org/2000/svg">
<rect width="376" height="256" fill="#202123"/>
<path d="M246.677 73.5397C244.579 71.7589 241.284 71.5041 237.876 72.8733H237.871C234.287 74.3125 136.431 116.324 132.448 118.04C131.723 118.292 125.395 120.655 126.047 125.919C126.629 130.665 131.715 132.631 132.336 132.858L157.214 141.384C158.864 146.883 164.949 167.172 166.294 171.506C167.134 174.208 168.502 177.759 170.899 178.49C173.003 179.302 175.095 178.56 176.449 177.496L191.659 163.375L216.213 182.541L216.797 182.891C218.465 183.63 220.062 184 221.587 184C222.764 184 223.895 183.779 224.974 183.336C228.653 181.824 230.125 178.316 230.278 177.918L248.619 82.5025C249.738 77.4065 248.182 74.8137 246.677 73.5397ZM179.154 144.794L170.762 167.194L162.37 139.194L226.712 91.5941L179.154 144.794Z" fill="white"/>
</svg>
